HIERARCHY
ROOT hip
{
  OFFSET 0 0 0
  CHANNELS 6 Xposition Yposition Zposition Zrotation Yrotation Xrotation
  JOINT abdomen
  {
    OFFSET 0 20.6881 -0.73152
    CHANNELS 3 Zrotation Xrotation Yrotation
    JOINT chest
    {
      OFFSET 0 11.7043 -0.48768
      CHANNELS 3 Zrotation Xrotation Yrotation
      JOINT neck
      {
        OFFSET 0 22.1894 -2.19456
        CHANNELS 3 Zrotation Xrotation Yrotation
        JOINT head
        {
          OFFSET -0.24384 7.07133 1.2192
          CHANNELS 3 Zrotation Xrotation Yrotation
          JOINT leftEye
          {
            OFFSET 4.14528 8.04674 8.04672
            CHANNELS 3 Zrotation Xrotation Yrotation
            End Site
            {
              OFFSET 1 0 0
            }
          }
          JOINT rightEye
          {
            OFFSET -3.6576 8.04674 8.04672
            CHANNELS 3 Zrotation Xrotation Yrotation
            End Site
            {
              OFFSET 1 0 0
            }
          }
        }
      }
      JOINT rCollar
      {
        OFFSET -2.68224 19.2634 -4.8768
        CHANNELS 3 Zrotation Xrotation Yrotation
        JOINT rShldr
        {
          OFFSET -8.77824 -1.95073 1.46304
          CHANNELS 3 Zrotation Xrotation Yrotation
          JOINT rForeArm
          {
            OFFSET -28.1742 -1.7115 0.48768
            CHANNELS 3 Zrotation Xrotation Yrotation
            JOINT rHand
            {
              OFFSET -22.5879 0.773209 7.07136
              CHANNELS 3 Zrotation Xrotation Yrotation
              JOINT rThumb1
              {
                OFFSET -1.2192 -0.487915 3.41376
                CHANNELS 3 Zrotation Xrotation Yrotation
                JOINT rThumb2
                {
                  OFFSET -3.37035 -0.52449 3.41376
                  CHANNELS 3 Zrotation Xrotation Yrotation
                  End Site
                  {
                    OFFSET -1.78271 -1.18214 1.43049
                  }
                }
              }
              JOINT rIndex1
              {
                OFFSET -7.75947 0.938293 5.60832
                CHANNELS 3 Zrotation Xrotation Yrotation
                JOINT rIndex2
                {
                  OFFSET -2.54057 -0.884171 1.56538
                  CHANNELS 3 Zrotation Xrotation Yrotation
                  End Site
                  {
                    OFFSET -1.62519 -0.234802 1.16502
                  }
                }
              }
              JOINT rMid1
              {
                OFFSET -8.24714 1.18213 3.41376
                CHANNELS 3 Zrotation Xrotation Yrotation
                JOINT rMid2
                {
                  OFFSET -3.10165 -0.590103 1.0647
                  CHANNELS 3 Zrotation Xrotation Yrotation
                  End Site
                  {
                    OFFSET -2.48547 -0.328903 0.83742
                  }
                }
              }
              JOINT rRing1
              {
                OFFSET -8.82822 0.546677 1.51678
                CHANNELS 3 Zrotation Xrotation Yrotation
                JOINT rRing2
                {
                  OFFSET -2.60934 -0.819778 -0.0198488
                  CHANNELS 3 Zrotation Xrotation Yrotation
                  End Site
                  {
                    OFFSET -2.33842 -0.294052 0.168128
                  }
                }
              }
              JOINT rPinky1
              {
                OFFSET -8.27202 -0.0477905 -0.4584
                CHANNELS 3 Zrotation Xrotation Yrotation
                JOINT rPinky2
                {
                  OFFSET -1.82734 -0.647385 -0.700984
                  CHANNELS 3 Zrotation Xrotation Yrotation
                  End Site
                  {
                    OFFSET -1.69225 -0.51767 -0.607171
                  }
                }
              }
            }
          }
        }
      }
      JOINT lCollar
      {
        OFFSET 2.68224 19.2634 -4.8768
        CHANNELS 3 Zrotation Xrotation Yrotation
        JOINT lShldr
        {
          OFFSET 8.77824 -1.95073 1.46304
          CHANNELS 3 Zrotation Xrotation Yrotation
          JOINT lForeArm
          {
            OFFSET 28.1742 -1.7115 0.48768
            CHANNELS 3 Zrotation Xrotation Yrotation
            JOINT lHand
            {
              OFFSET 22.5879 0.773209 7.07136
              CHANNELS 3 Zrotation Xrotation Yrotation
              JOINT lThumb1
              {
                OFFSET 1.2192 -0.487915 3.41376
                CHANNELS 3 Zrotation Xrotation Yrotation
                JOINT lThumb2
                {
                  OFFSET 3.37035 -0.52449 3.41376
                  CHANNELS 3 Zrotation Xrotation Yrotation
                  End Site
                  {
                    OFFSET 1.78271 -1.18214 1.43049
                  }
                }
              }
              JOINT lIndex1
              {
                OFFSET 7.75947 0.938293 5.60832
                CHANNELS 3 Zrotation Xrotation Yrotation
                JOINT lIndex2
                {
                  OFFSET 2.54057 -0.884171 1.56538
                  CHANNELS 3 Zrotation Xrotation Yrotation
                  End Site
                  {
                    OFFSET 1.62519 -0.234802 1.16502
                  }
                }
              }
              JOINT lMid1
              {
                OFFSET 8.24714 1.18213 3.41376
                CHANNELS 3 Zrotation Xrotation Yrotation
                JOINT lMid2
                {
                  OFFSET 3.10165 -0.590103 1.0647
                  CHANNELS 3 Zrotation Xrotation Yrotation
                  End Site
                  {
                    OFFSET 2.48547 -0.328903 0.83742
                  }
                }
              }
              JOINT lRing1
              {
                OFFSET 8.82822 0.546677 1.51678
                CHANNELS 3 Zrotation Xrotation Yrotation
                JOINT lRing2
                {
                  OFFSET 2.60934 -0.819778 -0.0198488
                  CHANNELS 3 Zrotation Xrotation Yrotation
                  End Site
                  {
                    OFFSET 2.33842 -0.294052 0.168128
                  }
                }
              }
              JOINT lPinky1
              {
                OFFSET 8.27202 -0.0477905 -0.4584
                CHANNELS 3 Zrotation Xrotation Yrotation
                JOINT lPinky2
                {
                  OFFSET 1.82734 -0.647385 -0.700984
                  CHANNELS 3 Zrotation Xrotation Yrotation
                  End Site
                  {
                    OFFSET 1.69225 -0.51767 -0.607171
                  }
                }
              }
            }
          }
        }
      }
    }
  }
  JOINT rButtock
  {
    OFFSET -8.77824 4.35084 1.2192
    CHANNELS 3 Zrotation Xrotation Yrotation
    JOINT rThigh
    {
      OFFSET 0 -1.70687 -2.19456
      CHANNELS 3 Zrotation Xrotation Yrotation
      JOINT rShin
      {
        OFFSET 0 -36.8199 0.73152
        CHANNELS 3 Zrotation Xrotation Yrotation
        JOINT rFoot
        {
          OFFSET 0.73152 -45.1104 -5.12064
          CHANNELS 3 Zrotation Xrotation Yrotation
          End Site
          {
            OFFSET -1.1221 -3.69964 12.103
          }
        }
      }
    }
  }
  JOINT lButtock
  {
    OFFSET 8.77824 4.35084 1.2192
    CHANNELS 3 Zrotation Xrotation Yrotation
    JOINT lThigh
    {
      OFFSET 0 -1.70687 -2.19456
      CHANNELS 3 Zrotation Xrotation Yrotation
      JOINT lShin
      {
        OFFSET 0 -36.8199 0.73152
        CHANNELS 3 Zrotation Xrotation Yrotation
        JOINT lFoot
        {
          OFFSET -0.73152 -45.1104 -5.12064
          CHANNELS 3 Zrotation Xrotation Yrotation
          End Site
          {
            OFFSET 1.1221 -3.69964 12.103
          }
        }
      }
    }
  }
}
MOTION
Frames:	9
Frame Time:	0.00833333
7.82492 85.2343 -190.594 0.0 0.0 0.0 0.705191 -0.00371385 0.0199544 0.19458 -0.00526911 0.0337142 -1.80522e-14 0.0 1.36664e-16 -5.4085e-14 3.18055e-15 4.69008e-16 -0.0 0.0 0.0 -0.0 0.0 0.0 -8.89719e-15 7.76503e-18 2.48481e-16 -1.86942e-13 -6.21202e-18 1.59028e-15 -3.25748e-12 9.82394e-13 7.31528e-14 -3.72945e-11 -9.34338e-13 2.13097e-13 -8.79719e-11 1.06554e-13 6.2975e-13 -1.51931e-10 1.84472e-13 1.07264e-12 -8.79682e-11 1.08536e-13 6.17028e-13 7.73091 5.47488 0.417314 -8.79713e-11 1.06847e-13 6.23389e-13 2.90554 0.965183 0.102902 -8.79584e-11 1.06847e-13 6.20208e-13 10.2786 0.731801 0.0259123 -8.79731e-11 1.07344e-13 6.23389e-13 2.22167 -0.733487 -0.20892 -8.99402e-15 7.95915e-18 -4.96962e-17 -1.91659e-13 -9.93923e-17 0.0 -3.25863e-12 -9.67087e-13 5.40694e-14 -3.72872e-11 1.01554e-12 2.38542e-13 -8.79568e-11 1.09654e-13 6.17028e-13 -1.5189e-10 1.94014e-13 1.07264e-12 -8.79642e-11 1.09332e-13 6.26569e-13 -7.73091 5.47488 -0.417314 -8.79567e-11 1.10425e-13 6.23389e-13 -2.90554 0.965183 -0.102902 -8.79614e-11 1.09928e-13 6.21003e-13 -10.2786 0.731801 -0.0259123 -8.79531e-11 1.10922e-13 6.17028e-13 -2.22167 -0.733487 0.20892 -2.03217e-16 0.0 -3.88251e-19 1.03764 -4.8484 -0.0878802 -0.00129038 3.22992 0.00172219 -0.507954 1.61856 0.0909447 2.03217e-16 0.0 3.88251e-19 0.0357869 -2.16335 0.018617 0.00864561 -1.63357 0.0730554 0.498194 3.79689 -0.134164
8.44844 83.5046 -192.036 1.3739 4.0128 4.8926 0.825336 1.47117 0.081092 0.0813559 -0.420119 0.0515564 -2.39796 2.15649 -3.21853 1.21861 -2.69837 -5.91838 -0.0 0.0 0.0 -0.0 0.0 0.0 -1.34436e-14 3.30789e-14 3.55879e-14 17.6284 3.11579 2.00479 -3.19591 -1.29462 5.14989 0.0255814 -3.57959 -0.49963 -2.69521e-10 6.45616e-10 6.36769e-11 -4.67538e-10 1.1193e-09 1.09242e-10 -2.69517e-10 6.45618e-10 6.3667e-11 7.73091 5.47488 0.417314 -2.69521e-10 6.45616e-10 6.36722e-11 2.90554 0.965183 0.102902 -2.6951e-10 6.45617e-10 6.36689e-11 10.2786 0.731801 0.0259123 -2.69524e-10 6.45617e-10 6.36738e-11 2.22167 -0.733487 -0.20892 -1.35532e-14 3.30777e-14 3.53351e-14 -19.8204 5.93682 1.46685 6.60612 -3.70209 -9.44434 -0.00908073 2.11476 -0.296479 -1.97245e-10 -1.49703e-10 1.90807e-10 -3.398e-10 -2.58291e-10 3.31842e-10 -1.97251e-10 -1.49704e-10 1.90815e-10 -7.73091 5.47488 -0.417314 -1.97244e-10 -1.49703e-10 1.90811e-10 -2.90554 0.965183 -0.102902 -1.97247e-10 -1.49701e-10 1.90809e-10 -10.2786 0.731801 -0.0259123 -1.9724e-10 -1.49702e-10 1.90803e-10 -2.22167 -0.733487 0.20892 -2.03217e-16 0.0 -3.88251e-19 1.00532 -8.13842 -1.05428 0.0442636 11.9747 0.201589 -1.36627 -4.51964 -5.35734 2.03217e-16 0.0 3.88251e-19 -1.05361 -7.15515 -1.08977 -0.00170349 7.06209 -0.0575394 0.454745 -1.27537 -0.463883
8.54074 83.45 -192.029 1.4018 4.1135 4.848 0.973107 3.02371 0.137921 -0.0429774 -0.858103 0.0684808 -4.66861 4.42046 -6.63394 1.90186 -5.47198 -12.2142 -0.0 0.0 0.0 -0.0 0.0 0.0 -1.93508e-14 7.17656e-14 7.3979e-14 36.0242 6.38835 4.15409 -6.33331 -2.63468 10.6201 -0.0162894 -7.41676 -1.04197 -4.83656e-10 1.38248e-09 1.12534e-10 -8.39624e-10 2.39665e-09 1.92743e-10 -4.83651e-10 1.38248e-09 1.12527e-10 7.73091 5.47488 0.417314 -4.83656e-10 1.38248e-09 1.12531e-10 2.90554 0.965183 0.102902 -4.83647e-10 1.38248e-09 1.12527e-10 10.2786 0.731801 0.0259123 -4.8366e-10 1.38248e-09 1.12534e-10 2.22167 -0.733487 -0.20892 -1.94756e-14 7.1763e-14 7.37771e-14 -41.121 12.197 3.06275 12.281 -7.2818 -19.5541 0.00519869 4.35654 -0.612142 -3.0409e-10 -2.88438e-10 4.12673e-10 -5.23271e-10 -4.97518e-10 7.17517e-10 -3.04094e-10 -2.88439e-10 4.12679e-10 -7.73091 5.47488 -0.417314 -3.04087e-10 -2.88438e-10 4.12674e-10 -2.90554 0.965183 -0.102902 -3.0409e-10 -2.88433e-10 4.12673e-10 -10.2786 0.731801 -0.0259123 -3.04084e-10 -2.88436e-10 4.12665e-10 -2.22167 -0.733487 0.20892 -2.03217e-16 0.0 -3.88251e-19 0.872539 -11.5993 -2.08733 0.021727 21.1757 0.432749 -3.55883 -10.8359 -11.3071 2.03217e-16 0.0 3.88251e-19 -2.40388 -12.4377 -2.31088 0.0317144 16.2559 -0.202875 0.346605 -6.62162 -0.81025
8.68383 83.254 -191.956 1.4611 3.9439 4.6789 1.05616 4.42091 0.203894 -0.144316 -1.24982 0.0872574 -6.46702 6.38764 -9.70959 2.0003 -7.7492 -17.9043 -0.0 0.0 0.0 -0.0 0.0 0.0 -2.25363e-14 9.92211e-14 1.06267e-13 52.2249 9.30128 6.08578 -8.89768 -3.75854 15.4798 -0.113361 -10.7355 -1.52262 -6.3262e-10 1.93664e-09 1.89771e-10 -1.09875e-09 3.35753e-09 3.2558e-10 -6.32615e-10 1.93664e-09 1.89767e-10 7.73091 5.47488 0.417314 -6.32621e-10 1.93664e-09 1.8977e-10 2.90554 0.965183 0.102902 -6.32614e-10 1.93664e-09 1.89766e-10 10.2786 0.731801 0.0259123 -6.32626e-10 1.93664e-09 1.89775e-10 2.22167 -0.733487 -0.20892 -2.26716e-14 9.92173e-14 1.06105e-13 -60.4109 17.7626 4.59651 16.2778 -9.90079 -28.7403 0.0387567 6.34358 -0.894308 -4.15822e-10 -4.49329e-10 5.71187e-10 -7.15621e-10 -7.7526e-10 9.93381e-10 -4.15824e-10 -4.4933e-10 5.71191e-10 -7.73091 5.47488 -0.417314 -4.15818e-10 -4.4933e-10 5.71186e-10 -2.90554 0.965183 -0.102902 -4.1582e-10 -4.49323e-10 5.71186e-10 -10.2786 0.731801 -0.0259123 -4.15815e-10 -4.49327e-10 5.71176e-10 -2.22167 -0.733487 0.20892 -2.03217e-16 0.0 -3.88251e-19 0.5973 -14.7025 -3.056 -0.0716237 29.4627 0.675535 -6.65047 -16.167 -16.8905 2.03217e-16 0.0 3.88251e-19 -3.83512 -17.1136 -3.43323 0.104858 24.453 -0.348633 0.189645 -11.4178 -1.14625
8.85279 83.2285 -191.931 1.6781 3.9628 4.6387 0.982015 5.42975 0.292393 -0.188579 -1.52586 0.110653 -7.6007 7.69113 -11.8836 1.8135 -9.1192 -21.9336 -0.0 0.0 0.0 -0.0 0.0 0.0 -1.89174e-14 9.85987e-14 1.23296e-13 63.4085 11.3598 7.40552 -10.5218 -4.46458 18.7837 -0.203998 -12.7614 -1.82407 -6.1866e-10 2.03401e-09 3.37959e-10 -1.07549e-09 3.5272e-09 5.81755e-10 -6.18654e-10 2.03401e-09 3.37956e-10 7.73091 5.47488 0.417314 -6.18661e-10 2.034e-09 3.37959e-10 2.90554 0.965183 0.102902 -6.18656e-10 2.03401e-09 3.37956e-10 10.2786 0.731801 0.0259123 -6.18667e-10 2.03401e-09 3.37966e-10 2.22167 -0.733487 -0.20892 -1.90517e-14 9.85943e-14 1.23147e-13 -74.0 21.6356 5.79176 18.5331 -11.2716 -35.2275 0.0731672 7.69442 -1.08799 -5.39772e-10 -6.65611e-10 5.71323e-10 -9.3017e-10 -1.14929e-09 9.9472e-10 -5.39774e-10 -6.65612e-10 5.71326e-10 -7.73091 5.47488 -0.417314 -5.39768e-10 -6.65611e-10 5.7132e-10 -2.90554 0.965183 -0.102902 -5.39769e-10 -6.65604e-10 5.71321e-10 -10.2786 0.731801 -0.0259123 -5.39764e-10 -6.65608e-10 5.7131e-10 -2.22167 -0.733487 0.20892 -2.03217e-16 0.0 -3.88251e-19 0.203293 -16.9249 -3.80751 -0.1921 35.4662 0.882309 -9.42867 -19.6557 -20.922 2.03217e-16 0.0 3.88251e-19 -5.02126 -20.2978 -4.18879 0.184704 30.1587 -0.465274 0.0296425 -14.8406 -1.43425
9.03837 83.1405 -191.869 2.0302 3.7848 4.5252 0.682538 5.89155 0.421746 -0.145724 -1.63866 0.143379 -8.02827 8.09854 -12.7626 1.71002 -9.40339 -23.5525 -0.0 0.0 0.0 -0.0 0.0 0.0 -1.93763e-15 4.71129e-14 1.19117e-13 67.7526 12.2823 7.82652 -11.0341 -4.66663 19.8837 -0.221291 -12.9414 -1.85228 -3.28663e-10 1.38128e-09 6.64864e-10 -5.74064e-10 2.39798e-09 1.14805e-09 -3.28658e-10 1.38128e-09 6.64859e-10 7.73091 5.47488 0.417314 -3.28663e-10 1.38128e-09 6.64865e-10 2.90554 0.965183 0.102902 -3.2866e-10 1.38128e-09 6.64863e-10 10.2786 0.731801 0.0259123 -3.2867e-10 1.38128e-09 6.64872e-10 2.22167 -0.733487 -0.20892 -2.0506e-15 4.71088e-14 1.18934e-13 -79.2831 23.1811 6.38111 19.3046 -11.6796 -37.7595 0.0877823 8.1606 -1.15531 -7.26099e-10 -1.04814e-09 2.99386e-10 -1.25447e-09 -1.81166e-09 5.24811e-10 -7.26101e-10 -1.04814e-09 2.99389e-10 -7.73091 5.47488 -0.417314 -7.26095e-10 -1.04814e-09 2.99383e-10 -2.90554 0.965183 -0.102902 -7.26098e-10 -1.04813e-09 2.99385e-10 -10.2786 0.731801 -0.0259123 -7.26092e-10 -1.04814e-09 2.99376e-10 -2.22167 -0.733487 0.20892 -2.03217e-16 0.0 -3.88251e-19 -0.25011 -17.9216 -4.2246 -0.263641 38.2687 0.984909 -10.5944 -21.0317 -22.3417 2.03217e-16 0.0 3.88251e-19 -5.6566 -21.4128 -4.34439 0.223746 32.3825 -0.514567 -0.0814425 -16.3532 -1.64668
9.13713 83.0665 -191.817 2.0936 3.8023 4.3423 0.223736 5.96274 0.57967 -0.0411144 -1.63491 0.182627 -8.0026 7.88249 -12.707 1.76969 -8.97728 -23.4302 -0.0 0.0 0.0 -0.0 0.0 0.0 2.4403e-14 -4.01537e-14 9.97806e-14 67.2628 12.4006 7.59115 -10.7935 -4.52982 19.4056 -0.180585 -11.805 -1.68387 1.56221e-10 1.98029e-10 1.11564e-09 2.64968e-10 3.50073e-10 1.92932e-09 1.56224e-10 1.98031e-10 1.11563e-09 7.73091 5.47488 0.417314 1.5622e-10 1.9803e-10 1.11564e-09 2.90554 0.965183 0.102902 1.56223e-10 1.98029e-10 1.11564e-09 10.2786 0.731801 0.0259123 1.56213e-10 1.98031e-10 1.11565e-09 2.22167 -0.733487 -0.20892 2.43257e-14 -4.01568e-14 9.95321e-14 -78.5432 23.0748 6.49254 19.2033 -11.6173 -37.4333 0.083688 7.99475 -1.13145 -9.54825e-10 -1.54519e-09 -1.64491e-10 -1.65341e-09 -2.67266e-09 -2.77565e-10 -9.54828e-10 -1.54519e-09 -1.64487e-10 -7.73091 5.47488 -0.417314 -9.54822e-10 -1.54519e-09 -1.64493e-10 -2.90554 0.965183 -0.102902 -9.54828e-10 -1.54519e-09 -1.6449e-10 -10.2786 0.731801 -0.0259123 -9.54819e-10 -1.54519e-09 -1.64496e-10 -2.22167 -0.733487 0.20892 -2.03217e-16 0.0 -3.88251e-19 -0.715257 -18.0458 -4.39118 -0.272267 38.7852 0.992691 -10.3351 -21.0276 -21.7738 2.03217e-16 0.0 3.88251e-19 -5.85548 -21.0533 -4.0511 0.219637 32.1191 -0.50673 -0.139843 -16.5013 -1.79792
9.25863 82.984 -191.736 2.2722 3.8185 4.2065 -0.285915 5.883 0.733623 0.0762517 -1.58663 0.21989 -7.79804 7.45113 -12.2748 1.91015 -8.33625 -22.6095 -0.0 0.0 0.0 -0.0 0.0 0.0 4.83525e-14 -1.23246e-13 7.41377e-14 64.8851 12.1504 7.08378 -10.2507 -4.25808 18.3087 -0.12997 -10.203 -1.44932 6.42352e-10 -1.02046e-09 1.48895e-09 1.10653e-09 -1.75936e-09 2.57666e-09 6.42352e-10 -1.02046e-09 1.48894e-09 7.73091 5.47488 0.417314 6.42351e-10 -1.02046e-09 1.48896e-09 2.90554 0.965183 0.102902 6.42353e-10 -1.02046e-09 1.48896e-09 10.2786 0.731801 0.0259123 6.42343e-10 -1.02046e-09 1.48897e-09 2.22167 -0.733487 -0.20892 4.83097e-14 -1.23248e-13 7.38233e-14 -75.3752 22.2947 6.4005 18.746 -11.359 -35.953 0.0723815 7.56715 -1.06993 -1.12808e-09 -1.94613e-09 -6.24596e-10 -1.95633e-09 -3.36748e-09 -1.07387e-09 -1.12808e-09 -1.94613e-09 -6.24591e-10 -7.73091 5.47488 -0.417314 -1.12808e-09 -1.94613e-09 -6.24597e-10 -2.90554 0.965183 -0.102902 -1.12808e-09 -1.94613e-09 -6.24593e-10 -10.2786 0.731801 -0.0259123 -1.12807e-09 -1.94613e-09 -6.24597e-10 -2.22167 -0.733487 0.20892 -2.03217e-16 0.0 -3.88251e-19 -1.17413 -17.8236 -4.44781 -0.253021 38.3958 0.960102 -9.50821 -20.4462 -20.4117 2.03217e-16 0.0 3.88251e-19 -5.88508 -20.099 -3.58893 0.198178 30.8517 -0.476019 -0.166583 -16.0856 -1.90794
9.3947 82.9258 -191.662 2.5225 3.6402 4.0379 -0.74036 5.89204 0.851324 0.15757 -1.56582 0.246662 -7.69201 7.2128 -12.0226 2.06997 -7.98216 -22.1249 -0.0 0.0 0.0 -0.0 0.0 0.0 5.81591e-14 -1.62208e-13 5.1038e-14 63.5623 11.9676 6.69054 -9.86618 -4.0604 17.5507 -0.100097 -8.98714 -1.27363 9.3609e-10 -1.77893e-09 1.58346e-09 1.61555e-09 -3.07317e-09 2.74117e-09 9.36089e-10 -1.77893e-09 1.58345e-09 7.73091 5.47488 0.417314 9.36088e-10 -1.77893e-09 1.58346e-09 2.90554 0.965183 0.102902 9.3609e-10 -1.77893e-09 1.58347e-09 10.2786 0.731801 0.0259123 9.36081e-10 -1.77893e-09 1.58347e-09 2.22167 -0.733487 -0.20892 5.81338e-14 -1.62209e-13 5.06901e-14 -73.3912 21.816 6.38707 18.4439 -11.172 -35.0237 0.0648686 7.24808 -1.02417 -1.14798e-09 -2.04033e-09 -8.85218e-10 -1.99259e-09 -3.53126e-09 -1.52556e-09 -1.14799e-09 -2.04033e-09 -8.85212e-10 -7.73091 5.47488 -0.417314 -1.14798e-09 -2.04033e-09 -8.85218e-10 -2.90554 0.965183 -0.102902 -1.14799e-09 -2.04033e-09 -8.85214e-10 -10.2786 0.731801 -0.0259123 -1.14798e-09 -2.04033e-09 -8.85215e-10 -2.22167 -0.733487 0.20892 -2.03217e-16 0.0 -3.88251e-19 -1.61944 -17.7798 -4.53895 -0.247998 38.48 0.947251 -8.97115 -20.1002 -19.4544 2.03217e-16 0.0 3.88251e-19 -5.9945 -19.4322 -3.23073 0.185578 30.0635 -0.456985 -0.193198 -15.9062 -2.0002
